<?xml version="1.0" standalone="no"?>
<svg xmlns="http://www.w3.org/2000/svg" viewBox="0 0 156.264 36" width="156.264" height="36"><g fill="#6183ff" color="#6183ff" transform="translate(0 3.9999999999999982) scale(0.2800001)"><svg width="100.0" height="100.0" x="0.0" y="0.0" viewBox="0 0 100 100"><path d="M5,20.1l7.4-7.4l26.1,26.1l7.5,7.4l-7.5,7.4L12.4,79.7L5,72.3l26.1-26.1L5,20.1z M95,87.3V75.7H48.8v11.6H95z"></path></svg></g><path fill="#6183ff" fill-rule="nonzero" d="M1.22 2.90Q0.72 2.90 0.36 2.54Q0 2.18 0 1.68L0 1.68L0 1.58Q0 1.08 0.36 0.72Q0.72 0.36 1.22 0.36L1.22 0.36L1.37 0.36Q1.87 0.36 2.23 0.72Q2.59 1.08 2.59 1.58L2.59 1.58L2.59 1.68Q2.59 2.18 2.23 2.54Q1.87 2.90 1.37 2.90L1.37 2.90L1.22 2.90ZM1.27 17.76Q0.82 17.76 0.50 17.45Q0.19 17.14 0.19 16.68L0.19 16.68L0.19 6.38Q0.19 5.93 0.50 5.60Q0.82 5.28 1.27 5.28L1.27 5.28Q1.75 5.28 2.06 5.59Q2.38 5.90 2.38 6.38L2.38 6.38L2.38 16.68Q2.38 17.14 2.05 17.45Q1.73 17.76 1.27 17.76L1.27 17.76ZM11.23 17.88Q9.74 17.88 8.41 17.12Q7.08 16.37 6.25 14.92Q5.42 13.46 5.42 11.52L5.42 11.52Q5.42 9.58 6.25 8.12Q7.08 6.67 8.41 5.92Q9.74 5.16 11.23 5.16L11.23 5.16Q13.58 5.16 15.34 6.98L15.34 6.98L15.34 1.10Q15.34 0.62 15.66 0.31Q15.98 0 16.44 0L16.44 0Q16.90 0 17.21 0.32Q17.52 0.65 17.52 1.10L17.52 1.10L17.52 16.68Q17.52 17.14 17.21 17.45Q16.90 17.76 16.44 17.76L16.44 17.76Q15.98 17.76 15.66 17.45Q15.34 17.14 15.34 16.68L15.34 16.68L15.34 16.06Q13.58 17.88 11.23 17.88L11.23 17.88ZM11.54 15.84Q12.65 15.84 13.62 15.35Q14.59 14.86 15.34 14.04L15.34 14.04L15.34 9Q14.59 8.18 13.62 7.69Q12.65 7.20 11.54 7.20L11.54 7.20Q9.77 7.20 8.69 8.33Q7.61 9.46 7.61 11.52L7.61 11.52Q7.61 13.58 8.69 14.71Q9.77 15.84 11.54 15.84L11.54 15.84ZM26.78 17.88Q23.86 17.88 22.21 16.21Q20.57 14.54 20.57 11.52L20.57 11.52Q20.57 9.82 21.19 8.38Q21.82 6.94 23.11 6.05Q24.41 5.16 26.30 5.16L26.30 5.16Q28.08 5.16 29.38 5.99Q30.67 6.82 31.34 8.20Q32.02 9.58 32.02 11.21L32.02 11.21Q32.02 11.66 31.72 11.98Q31.42 12.29 30.91 12.29L30.91 12.29L22.78 12.29Q22.97 13.97 24.02 14.90Q25.08 15.84 26.98 15.84L26.98 15.84Q27.98 15.84 28.74 15.65Q29.50 15.46 30.22 15.10L30.22 15.10Q30.41 15 30.65 15L30.65 15Q31.03 15 31.32 15.26Q31.61 15.53 31.61 15.94L31.61 15.94Q31.61 16.46 30.98 16.82L30.98 16.82Q30.05 17.35 29.14 17.62Q28.22 17.88 26.78 17.88L26.78 17.88ZM22.78 10.51L29.86 10.51Q29.78 9.34 29.24 8.54Q28.70 7.75 27.91 7.38Q27.12 7.01 26.30 7.01L26.30 7.01Q25.49 7.01 24.70 7.38Q23.90 7.75 23.38 8.54Q22.85 9.34 22.78 10.51L22.78 10.51ZM43.39 17.76Q42.94 17.76 42.62 17.45Q42.31 17.14 42.31 16.68L42.31 16.68L42.31 13.42L34.99 13.42Q34.42 13.42 34.01 13.02Q33.60 12.62 33.60 12.05L33.60 12.05L33.60 11.83Q33.60 11.33 33.89 10.97L33.89 10.97L41.42 1.34Q41.62 1.08 41.94 0.92Q42.26 0.77 42.62 0.77L42.62 0.77L43.10 0.77Q43.73 0.77 44.11 1.16Q44.50 1.56 44.50 2.16L44.50 2.16L44.50 11.47L46.32 11.47Q46.73 11.47 47.02 11.76Q47.30 12.05 47.30 12.46L47.30 12.46Q47.30 12.86 47.02 13.14Q46.73 13.42 46.32 13.42L46.32 13.42L44.50 13.42L44.50 16.68Q44.50 17.14 44.17 17.45Q43.85 17.76 43.39 17.76L43.39 17.76ZM42.31 3.24L35.93 11.47L42.31 11.47L42.31 3.24ZM53.93 17.88Q51.53 17.88 49.56 16.80L49.56 16.80Q49.15 16.51 49.15 16.01L49.15 16.01Q49.15 15.62 49.42 15.34Q49.68 15.05 50.09 15.05L50.09 15.05Q50.30 15.05 50.52 15.14L50.52 15.14Q51.29 15.48 52.06 15.67Q52.82 15.86 53.78 15.86L53.78 15.86Q56.45 15.86 56.45 14.16L56.45 14.16Q56.45 13.61 55.84 13.32Q55.22 13.03 53.83 12.67L53.83 12.67Q52.42 12.34 51.49 11.98Q50.57 11.62 49.91 10.88Q49.25 10.15 49.25 8.95L49.25 8.95Q49.25 7.27 50.46 6.22Q51.67 5.16 53.93 5.16L53.93 5.16Q55.78 5.16 57.41 5.76L57.41 5.76Q57.74 5.86 57.92 6.12Q58.10 6.38 58.10 6.67L58.10 6.67Q58.10 7.06 57.83 7.34Q57.55 7.63 57.14 7.63L57.14 7.63Q57.02 7.63 56.83 7.58L56.83 7.58Q55.44 7.15 54.10 7.15L54.10 7.15Q52.80 7.15 52.07 7.62Q51.34 8.09 51.34 8.83L51.34 8.83Q51.34 9.55 52.01 9.89Q52.68 10.22 54.10 10.54L54.10 10.54Q55.51 10.90 56.40 11.24Q57.29 11.59 57.92 12.34Q58.56 13.08 58.56 14.33L58.56 14.33Q58.56 15.86 57.35 16.87Q56.14 17.88 53.93 17.88L53.93 17.88ZM67.15 17.88Q65.42 17.88 63.96 17.11Q62.50 16.34 61.62 14.90Q60.74 13.46 60.74 11.52L60.74 11.52Q60.74 9.58 61.62 8.14Q62.50 6.70 63.96 5.93Q65.42 5.16 67.15 5.16L67.15 5.16Q68.42 5.16 69.35 5.48Q70.27 5.81 71.06 6.31L71.06 6.31Q71.54 6.62 71.54 7.15L71.54 7.15Q71.54 7.51 71.27 7.81Q70.99 8.11 70.63 8.11L70.63 8.11Q70.37 8.11 70.10 7.97L70.10 7.97Q69.31 7.56 68.75 7.38Q68.18 7.20 67.34 7.20L67.34 7.20Q65.28 7.20 64.10 8.39Q62.93 9.58 62.93 11.52L62.93 11.52Q62.93 13.46 64.10 14.65Q65.28 15.84 67.34 15.84L67.34 15.84Q68.18 15.84 68.75 15.66Q69.31 15.48 70.10 15.07L70.10 15.07Q70.37 14.93 70.63 14.93L70.63 14.93Q70.99 14.93 71.27 15.23Q71.54 15.53 71.54 15.89L71.54 15.89Q71.54 16.42 71.06 16.73L71.06 16.73Q70.27 17.23 69.35 17.56Q68.42 17.88 67.15 17.88L67.15 17.88ZM75.36 17.76Q74.90 17.76 74.59 17.45Q74.28 17.14 74.28 16.68L74.28 16.68L74.28 1.10Q74.28 0.65 74.59 0.32Q74.90 0 75.36 0L75.36 0Q75.82 0 76.14 0.32Q76.46 0.65 76.46 1.10L76.46 1.10L76.46 7.37Q77.38 6.36 78.43 5.76Q79.49 5.16 80.93 5.16L80.93 5.16Q82.25 5.16 83.22 5.78Q84.19 6.41 84.71 7.49Q85.22 8.57 85.22 9.86L85.22 9.86L85.22 16.68Q85.22 17.14 84.90 17.45Q84.58 17.76 84.12 17.76L84.12 17.76Q83.66 17.76 83.35 17.45Q83.04 17.14 83.04 16.68L83.04 16.68L83.04 10.10Q83.04 7.18 80.40 7.18L80.40 7.18Q79.20 7.18 78.25 7.80Q77.30 8.42 76.46 9.48L76.46 9.48L76.46 16.68Q76.46 17.14 76.14 17.45Q75.82 17.76 75.36 17.76L75.36 17.76ZM94.30 17.88Q92.45 17.88 91.06 17.09Q89.66 16.30 88.91 14.84Q88.15 13.39 88.15 11.52L88.15 11.52Q88.15 9.65 88.91 8.20Q89.66 6.74 91.06 5.95Q92.45 5.16 94.30 5.16L94.30 5.16Q96.12 5.16 97.51 5.95Q98.90 6.74 99.67 8.20Q100.44 9.65 100.44 11.52L100.44 11.52Q100.44 13.39 99.67 14.84Q98.90 16.30 97.51 17.09Q96.12 17.88 94.30 17.88L94.30 17.88ZM94.30 15.89Q95.28 15.89 96.18 15.43Q97.08 14.98 97.67 13.99Q98.26 13.01 98.26 11.50L98.26 11.50Q98.26 10.01 97.67 9.02Q97.08 8.04 96.18 7.60Q95.28 7.15 94.30 7.15L94.30 7.15Q93.29 7.15 92.39 7.60Q91.49 8.04 90.91 9.02Q90.34 10.01 90.34 11.50L90.34 11.50Q90.34 13.01 90.91 13.99Q91.49 14.98 92.39 15.43Q93.29 15.89 94.30 15.89L94.30 15.89ZM108.89 17.88Q107.04 17.88 105.65 17.09Q104.26 16.30 103.50 14.84Q102.74 13.39 102.74 11.52L102.74 11.52Q102.74 9.65 103.50 8.20Q104.26 6.74 105.65 5.95Q107.04 5.16 108.89 5.16L108.89 5.16Q110.71 5.16 112.10 5.95Q113.50 6.74 114.26 8.20Q115.03 9.65 115.03 11.52L115.03 11.52Q115.03 13.39 114.26 14.84Q113.50 16.30 112.10 17.09Q110.71 17.88 108.89 17.88L108.89 17.88ZM108.89 15.89Q109.87 15.89 110.77 15.43Q111.67 14.98 112.26 13.99Q112.85 13.01 112.85 11.50L112.85 11.50Q112.85 10.01 112.26 9.02Q111.67 8.04 110.77 7.60Q109.87 7.15 108.89 7.15L108.89 7.15Q107.88 7.15 106.98 7.60Q106.08 8.04 105.50 9.02Q104.93 10.01 104.93 11.50L104.93 11.50Q104.93 13.01 105.50 13.99Q106.08 14.98 106.98 15.43Q107.88 15.89 108.89 15.89L108.89 15.89ZM119.16 17.76Q118.70 17.76 118.39 17.45Q118.08 17.14 118.08 16.68L118.08 16.68L118.08 1.10Q118.08 0.65 118.39 0.32Q118.70 0 119.16 0L119.16 0Q119.64 0 119.95 0.31Q120.26 0.62 120.26 1.10L120.26 1.10L120.26 16.68Q120.26 17.14 119.94 17.45Q119.62 17.76 119.16 17.76L119.16 17.76Z" transform="translate(36, 9.06)"></path></svg>